<svg id="icons" enable-background="new 0 0 64 64" height="512" viewBox="0 0 64 64" width="512" xmlns="http://www.w3.org/2000/svg"><g><g><g><path d="m54.5 27.5c2.48 0 4.5-2.02 4.5-4.5s-2.02-4.5-4.5-4.5-4.5 2.02-4.5 4.5 2.02 4.5 4.5 4.5zm0-6c.83 0 1.5.67 1.5 1.5s-.67 1.5-1.5 1.5-1.5-.67-1.5-1.5.67-1.5 1.5-1.5z" fill="#ffd2a6"/></g><g><path d="m51.5 42.5c-2.49 0-4.5 2.02-4.5 4.5s2.01 4.5 4.5 4.5c2.48 0 4.5-2.02 4.5-4.5s-2.02-4.5-4.5-4.5zm0 6c-.83 0-1.5-.67-1.5-1.5s.67-1.5 1.5-1.5 1.5.67 1.5 1.5-.67 1.5-1.5 1.5z" fill="#ffd2a6"/></g><g><path d="m51.5 35.5c-6.35 0-11.5 5.15-11.5 11.5s5.15 11.5 11.5 11.5 11.5-5.15 11.5-11.5-5.15-11.5-11.5-11.5zm0 19c-4.15 0-7.5-3.37-7.5-7.5s3.35-7.5 7.5-7.5c4.14 0 7.5 3.37 7.5 7.5s-3.36 7.5-7.5 7.5z" fill="#ffd2a6"/></g><g><path d="m39.5 20.5c3.03 0 5.5-2.46 5.5-5.5s-2.47-5.5-5.5-5.5c-3.04 0-5.5 2.46-5.5 5.5s2.46 5.5 5.5 5.5zm0-7.5c1.1 0 2 .9 2 2s-.9 2-2 2c-1.11 0-2-.9-2-2s.89-2 2-2z" fill="#ffd2a6"/></g><g><path d="m27 39.5c-3.31 0-6 2.69-6 6s2.69 6 6 6c3.32 0 6-2.69 6-6s-2.68-6-6-6zm0 8c-1.1 0-2-.9-2-2s.9-2 2-2c1.11 0 2 .9 2 2s-.89 2-2 2z" fill="#ffd2a6"/></g><g><path d="m31 20.5c0-8.28-6.72-15-15-15-8.29 0-15 6.72-15 15 0 8.29 6.71 15 15 15 8.28 0 15-6.71 15-15zm-15 11c-6.08 0-11-4.93-11-11s4.92-11 11-11c6.07 0 11 4.93 11 11s-4.93 11-11 11z" fill="#ffd2a6"/></g><g><path d="m16 13.5c-3.86 0-7 3.14-7 7s3.14 7 7 7 7-3.14 7-7-3.14-7-7-7zm0 10c-1.66 0-3-1.35-3-3s1.34-3 3-3c1.65 0 3 1.35 3 3s-1.35 3-3 3z" fill="#ffd2a6"/></g><g><path d="m44 30.5c0-3.31-2.69-6-6-6-3.32 0-6 2.69-6 6s2.68 6 6 6c3.31 0 6-2.69 6-6zm-6 2c-1.11 0-2-.9-2-2s.89-2 2-2c1.1 0 2 .9 2 2s-.9 2-2 2z" fill="#ffd2a6"/></g><g><path d="m9 37.5c-3.32 0-6 2.69-6 6s2.68 6 6 6c3.31 0 6-2.69 6-6s-2.69-6-6-6zm0 8c-1.11 0-2-.9-2-2s.89-2 2-2c1.1 0 2 .9 2 2s-.9 2-2 2z" fill="#ffd2a6"/></g></g><g><g><path d="m27 43.5c1.11 0 2 .9 2 2s-.89 2-2 2c-1.1 0-2-.9-2-2s.9-2 2-2z" fill="#f7c292"/></g><g><path d="m39.5 13c1.1 0 2 .9 2 2s-.9 2-2 2c-1.11 0-2-.9-2-2s.89-2 2-2z" fill="#f7c292"/></g><g><path d="m54.5 14.5c4.7 0 8.5 3.81 8.5 8.5 0 4.7-3.8 8.5-8.5 8.5-4.69 0-8.5-3.8-8.5-8.5 0-4.69 3.81-8.5 8.5-8.5zm4.5 8.5c0-2.48-2.02-4.5-4.5-4.5s-4.5 2.02-4.5 4.5 2.02 4.5 4.5 4.5 4.5-2.02 4.5-4.5z" fill="#f7c292"/></g><g><circle cx="54.5" cy="23" fill="#f7c292" r="1.5"/></g><g><circle cx="51.5" cy="47" fill="#f7c292" r="1.5"/></g><g><path d="m51.5 54.5c-4.15 0-7.5-3.37-7.5-7.5s3.35-7.5 7.5-7.5c4.14 0 7.5 3.37 7.5 7.5s-3.36 7.5-7.5 7.5zm0-12c-2.49 0-4.5 2.02-4.5 4.5s2.01 4.5 4.5 4.5c2.48 0 4.5-2.02 4.5-4.5s-2.02-4.5-4.5-4.5z" fill="#f7c292"/></g><g><path d="m38 28.5c1.1 0 2 .9 2 2s-.9 2-2 2c-1.11 0-2-.9-2-2s.89-2 2-2z" fill="#f7c292"/></g><g><path d="m36 45.5c0 4.97-4.03 9-9 9s-9-4.03-9-9 4.03-9 9-9 9 4.03 9 9zm-3 0c0-3.31-2.68-6-6-6-3.31 0-6 2.69-6 6s2.69 6 6 6c3.32 0 6-2.69 6-6z" fill="#f7c292"/></g><g><path d="m16 17.5c1.65 0 3 1.35 3 3s-1.35 3-3 3c-1.66 0-3-1.35-3-3s1.34-3 3-3z" fill="#f7c292"/></g><g><path d="m16 9.5c6.07 0 11 4.93 11 11s-4.93 11-11 11c-6.08 0-11-4.93-11-11s4.92-11 11-11zm7 11c0-3.86-3.14-7-7-7s-7 3.14-7 7 3.14 7 7 7 7-3.14 7-7z" fill="#f7c292"/></g><g><path d="m9 41.5c1.1 0 2 .9 2 2s-.9 2-2 2c-1.11 0-2-.9-2-2s.89-2 2-2z" fill="#f7c292"/></g></g></g><g><g><path d="m15.998 36.5c-8.822 0-16-7.178-16-16s7.178-16 16-16 16 7.178 16 16-7.178 16-16 16zm0-30c-7.72 0-14 6.28-14 14s6.28 14 14 14 14-6.28 14-14-6.28-14-14-14z"/></g><g><path d="m15.998 32.5c-6.617 0-12-5.383-12-12s5.383-12 12-12 12 5.383 12 12-5.383 12-12 12zm0-22c-5.514 0-10 4.486-10 10s4.486 10 10 10 10-4.486 10-10-4.486-10-10-10z"/></g><g><path d="m15.998 24.5c-2.206 0-4-1.794-4-4s1.794-4 4-4 4 1.794 4 4-1.794 4-4 4zm0-6c-1.103 0-2 .897-2 2s.897 2 2 2 2-.897 2-2-.897-2-2-2z"/></g><g><path d="m15.998 28.5c-4.411 0-8-3.589-8-8s3.589-8 8-8 8 3.589 8 8-3.589 8-8 8zm0-14c-3.309 0-6 2.691-6 6s2.691 6 6 6 6-2.691 6-6-2.691-6-6-6z"/></g><g><path d="m39.495 21.502c-3.584 0-6.5-2.916-6.5-6.5s2.916-6.5 6.5-6.5 6.5 2.916 6.5 6.5-2.916 6.5-6.5 6.5zm0-11c-2.481 0-4.5 2.019-4.5 4.5s2.019 4.5 4.5 4.5 4.5-2.019 4.5-4.5-2.018-4.5-4.5-4.5z"/></g><g><path d="m39.495 18.002c-1.654 0-3-1.346-3-3s1.346-3 3-3 3 1.346 3 3-1.346 3-3 3zm0-4c-.552 0-1 .448-1 1s.448 1 1 1 1-.448 1-1-.448-1-1-1z"/></g><g><path d="m37.998 37.5c-3.859 0-7-3.141-7-7s3.141-7 7-7 7 3.141 7 7-3.141 7-7 7zm0-12c-2.757 0-5 2.243-5 5s2.243 5 5 5 5-2.243 5-5-2.243-5-5-5z"/></g><g><path d="m37.998 33.5c-1.654 0-3-1.346-3-3s1.346-3 3-3 3 1.346 3 3-1.346 3-3 3zm0-4c-.552 0-1 .448-1 1s.448 1 1 1 1-.448 1-1-.448-1-1-1z"/></g><g><path d="m8.998 50.5c-3.859 0-7-3.141-7-7s3.141-7 7-7 7 3.141 7 7-3.141 7-7 7zm0-12c-2.757 0-5 2.243-5 5s2.243 5 5 5 5-2.243 5-5-2.243-5-5-5z"/></g><g><path d="m8.998 46.5c-1.654 0-3-1.346-3-3s1.346-3 3-3 3 1.346 3 3-1.346 3-3 3zm0-4c-.552 0-1 .448-1 1s.448 1 1 1 1-.448 1-1-.448-1-1-1z"/></g><g><path d="m54.501 32.504c-5.24 0-9.503-4.263-9.503-9.502s4.263-9.502 9.503-9.502c5.239 0 9.501 4.263 9.501 9.502s-4.262 9.502-9.501 9.502zm0-17.004c-4.137 0-7.503 3.365-7.503 7.502s3.366 7.502 7.503 7.502c4.136 0 7.501-3.365 7.501-7.502s-3.365-7.502-7.501-7.502z"/></g><g><path d="m54.501 25.502c-1.379 0-2.501-1.121-2.501-2.5s1.122-2.5 2.501-2.5c1.378 0 2.499 1.121 2.499 2.5s-1.121 2.5-2.499 2.5zm0-3c-.276 0-.501.225-.501.5s.225.5.501.5c.275 0 .499-.225.499-.5s-.224-.5-.499-.5z"/></g><g><path d="m54.501 28.502c-3.033 0-5.501-2.468-5.501-5.5s2.468-5.5 5.501-5.5c3.032 0 5.499 2.468 5.499 5.5s-2.467 5.5-5.499 5.5zm0-9c-1.931 0-3.501 1.57-3.501 3.5s1.57 3.5 3.501 3.5c1.93 0 3.499-1.57 3.499-3.5s-1.569-3.5-3.499-3.5z"/></g><g><path d="m27.004 55.502c-5.516 0-10.003-4.487-10.003-10.002s4.487-10.002 10.003-10.002c5.515 0 10.001 4.487 10.001 10.002s-4.486 10.002-10.001 10.002zm0-18.004c-4.413 0-8.003 3.59-8.003 8.002s3.59 8.002 8.003 8.002c4.412 0 8.001-3.59 8.001-8.002s-3.589-8.002-8.001-8.002z"/></g><g><path d="m27.004 48.5c-1.654 0-3.001-1.346-3.001-3s1.347-3 3.001-3c1.653 0 2.999 1.346 2.999 3s-1.346 3-2.999 3zm0-4c-.552 0-1.001.448-1.001 1s.449 1 1.001 1c.551 0 .999-.448.999-1s-.448-1-.999-1z"/></g><g><path d="m27.004 52.5c-3.86 0-7.001-3.141-7.001-7s3.141-7 7.001-7c3.859 0 6.999 3.141 6.999 7s-3.14 7-6.999 7zm0-12c-2.758 0-5.001 2.243-5.001 5s2.243 5 5.001 5c2.757 0 4.999-2.243 4.999-5s-2.242-5-4.999-5z"/></g><g><path d="m51.499 59.5c-6.893 0-12.501-5.607-12.501-12.5s5.608-12.5 12.501-12.5c6.892 0 12.499 5.607 12.499 12.5s-5.607 12.5-12.499 12.5zm0-23c-5.79 0-10.501 4.71-10.501 10.5s4.711 10.5 10.501 10.5c5.789 0 10.499-4.71 10.499-10.5s-4.71-10.5-10.499-10.5z"/></g><g><path d="m51.499 49.5c-1.379 0-2.501-1.121-2.501-2.5s1.122-2.5 2.501-2.5c1.378 0 2.499 1.121 2.499 2.5s-1.121 2.5-2.499 2.5zm0-3c-.276 0-.501.225-.501.5s.225.5.501.5c.275 0 .499-.225.499-.5s-.224-.5-.499-.5z"/></g><g><path d="m51.499 52.5c-3.033 0-5.501-2.468-5.501-5.5s2.468-5.5 5.501-5.5c3.032 0 5.499 2.468 5.499 5.5s-2.467 5.5-5.499 5.5zm0-9c-1.931 0-3.501 1.57-3.501 3.5s1.57 3.5 3.501 3.5c1.93 0 3.499-1.57 3.499-3.5s-1.569-3.5-3.499-3.5z"/></g><g><path d="m51.499 55.5c-4.688 0-8.501-3.813-8.501-8.5s3.813-8.5 8.501-8.5c4.687 0 8.499 3.813 8.499 8.5s-3.812 8.5-8.499 8.5zm0-15c-3.585 0-6.501 2.916-6.501 6.5s2.916 6.5 6.501 6.5c3.584 0 6.499-2.916 6.499-6.5s-2.915-6.5-6.499-6.5z"/></g></g></svg>