<?xml version="1.0" encoding="iso-8859-1"?>
<!-- Generator: Adobe Illustrator 19.0.0, SVG Export Plug-In . SVG Version: 6.00 Build 0)  -->
<svg version="1.1" id="Capa_1" xmlns="http://www.w3.org/2000/svg" xmlns:xlink="http://www.w3.org/1999/xlink" x="0px" y="0px"
	 viewBox="0 0 512 512" style="enable-background:new 0 0 512 512;" xml:space="preserve">
<g>
	<g>
		<path d="M147.064,0H38.128c-6.013,0-10.894,4.88-10.894,10.894V392.17c0,6.013,4.88,10.894,10.894,10.894h108.936
			c6.013,0,10.894-4.88,10.894-10.894V10.894C157.957,4.88,153.077,0,147.064,0z M136.17,381.277H49.021V21.787h87.149V381.277z"/>
	</g>
</g>
<g>
	<g>
		<path d="M256,54.468H147.064c-6.013,0-10.894,4.88-10.894,10.894v435.745c0,6.013,4.88,10.894,10.894,10.894H256
			c6.013,0,10.894-4.88,10.894-10.894V65.362C266.894,59.348,262.013,54.468,256,54.468z M245.106,490.213h-87.149V76.255h87.149
			V490.213z"/>
	</g>
</g>
<g>
	<g>
		<path d="M364.936,0H256c-6.013,0-10.894,4.88-10.894,10.894V392.17c0,6.013,4.88,10.894,10.894,10.894h108.936
			c6.013,0,10.894-4.88,10.894-10.894V10.894C375.83,4.88,370.949,0,364.936,0z M354.043,381.277h-87.149V21.787h87.149V381.277z"/>
	</g>
</g>
<g>
	<g>
		<path d="M473.872,54.468H364.936c-6.013,0-10.894,4.88-10.894,10.894v435.745c0,6.013,4.88,10.894,10.894,10.894h108.936
			c6.013,0,10.894-4.88,10.894-10.894V65.362C484.766,59.348,479.886,54.468,473.872,54.468z M462.979,490.213H375.83V76.255h87.149
			V490.213z"/>
	</g>
</g>
<g>
	<g>
		<path d="M65.362,32.681c-3.007,0-5.447,2.44-5.447,5.447v108.936c0,3.007,2.44,5.447,5.447,5.447c3.007,0,5.447-2.44,5.447-5.447
			V38.128C70.809,35.121,68.368,32.681,65.362,32.681z"/>
	</g>
</g>
<g>
	<g>
		<path d="M92.596,196.085c-3.007,0-5.447,2.44-5.447,5.447V256c0,3.007,2.44,5.447,5.447,5.447s5.447-2.44,5.447-5.447v-54.468
			C98.043,198.525,95.602,196.085,92.596,196.085z"/>
	</g>
</g>
<g>
	<g>
		<path d="M92.596,305.021c-3.007,0-5.447,2.435-5.447,5.447v27.234c0,3.012,2.44,5.447,5.447,5.447s5.447-2.435,5.447-5.447
			v-27.234C98.043,307.456,95.602,305.021,92.596,305.021z"/>
	</g>
</g>
<g>
	<g>
		<path d="M92.596,59.915c-3.007,0-5.447,2.44-5.447,5.447v54.468c0,3.007,2.44,5.447,5.447,5.447s5.447-2.44,5.447-5.447V65.362
			C98.043,62.355,95.602,59.915,92.596,59.915z"/>
	</g>
</g>
<g>
	<g>
		<path d="M228.766,87.149c-3.007,0-5.447,2.44-5.447,5.447v136.17c0,3.007,2.44,5.447,5.447,5.447c3.007,0,5.447-2.44,5.447-5.447
			V92.596C234.213,89.589,231.773,87.149,228.766,87.149z"/>
	</g>
</g>
<g>
	<g>
		<path d="M201.532,141.617c-3.007,0-5.447,2.44-5.447,5.447v54.468c0,3.007,2.44,5.447,5.447,5.447s5.447-2.44,5.447-5.447v-54.468
			C206.979,144.057,204.539,141.617,201.532,141.617z"/>
	</g>
</g>
<g>
	<g>
		<path d="M174.298,277.787c-3.007,0-5.447,2.435-5.447,5.447v81.702c0,3.012,2.44,5.447,5.447,5.447
			c3.007,0,5.447-2.435,5.447-5.447v-81.702C179.745,280.222,177.305,277.787,174.298,277.787z"/>
	</g>
</g>
<g>
	<g>
		<path d="M201.532,305.021c-3.007,0-5.447,2.435-5.447,5.447v136.17c0,3.012,2.44,5.447,5.447,5.447s5.447-2.435,5.447-5.447
			v-136.17C206.979,307.456,204.539,305.021,201.532,305.021z"/>
	</g>
</g>
<g>
	<g>
		<path d="M310.468,32.681c-3.012,0-5.447,2.44-5.447,5.447v54.468c0,3.007,2.435,5.447,5.447,5.447s5.447-2.44,5.447-5.447V38.128
			C315.915,35.121,313.48,32.681,310.468,32.681z"/>
	</g>
</g>
<g>
	<g>
		<path d="M337.702,114.383c-3.012,0-5.447,2.44-5.447,5.447v163.404c0,3.012,2.435,5.447,5.447,5.447s5.447-2.435,5.447-5.447
			V119.83C343.149,116.823,340.714,114.383,337.702,114.383z"/>
	</g>
</g>
<g>
	<g>
		<path d="M310.468,141.617c-3.012,0-5.447,2.44-5.447,5.447v27.234c0,3.007,2.435,5.447,5.447,5.447s5.447-2.44,5.447-5.447
			v-27.234C315.915,144.057,313.48,141.617,310.468,141.617z"/>
	</g>
</g>
<g>
	<g>
		<path d="M283.234,196.085c-3.012,0-5.447,2.44-5.447,5.447v136.17c0,3.012,2.435,5.447,5.447,5.447s5.447-2.435,5.447-5.447
			v-136.17C288.681,198.525,286.246,196.085,283.234,196.085z"/>
	</g>
</g>
<g>
	<g>
		<path d="M392.17,359.489c-3.012,0-5.447,2.435-5.447,5.447v108.936c0,3.012,2.435,5.447,5.447,5.447s5.447-2.435,5.447-5.447
			V364.936C397.617,361.924,395.182,359.489,392.17,359.489z"/>
	</g>
</g>
<g>
	<g>
		<path d="M419.404,305.021c-3.012,0-5.447,2.435-5.447,5.447v108.936c0,3.012,2.435,5.447,5.447,5.447s5.447-2.435,5.447-5.447
			V310.468C424.851,307.456,422.416,305.021,419.404,305.021z"/>
	</g>
</g>
<g>
	<g>
		<path d="M392.17,141.617c-3.012,0-5.447,2.44-5.447,5.447v27.234c0,3.007,2.435,5.447,5.447,5.447s5.447-2.44,5.447-5.447v-27.234
			C397.617,144.057,395.182,141.617,392.17,141.617z"/>
	</g>
</g>
<g>
	<g>
		<path d="M446.638,196.085c-3.012,0-5.447,2.44-5.447,5.447v81.702c0,3.012,2.435,5.447,5.447,5.447s5.447-2.435,5.447-5.447
			v-81.702C452.085,198.525,449.65,196.085,446.638,196.085z"/>
	</g>
</g>
<g>
</g>
<g>
</g>
<g>
</g>
<g>
</g>
<g>
</g>
<g>
</g>
<g>
</g>
<g>
</g>
<g>
</g>
<g>
</g>
<g>
</g>
<g>
</g>
<g>
</g>
<g>
</g>
<g>
</g>
</svg>
