<svg height="447pt" viewBox="0 -24 447.04 447" width="447pt" xmlns="http://www.w3.org/2000/svg"><path d="m7 7.023438h433.035156v169.402343h-433.035156zm0 0" fill="#f9ad6a"/><path d="m411.535156 7.019531h28.503906v169.402344h-28.503906zm0 0" fill="#ea8c46"/><path d="m76.78125 13.589844c15.316406 5.964844 29.890625 13.679687 43.4375 22.988281 18.125 11.667969 34.246094 22.046875 59.796875 22.046875 6.5625-.039062 13.109375-.644531 19.570313-1.808594 27.785156-4.847656 48.914062-15.558594 67.550781-25.011718 18.800781-9.539063 35.0625-17.78125 53.597656-17.78125v-7h-33.535156c-8.851563 3.453124-17.515625 7.792968-26.398438 12.296874-18.632812 9.449219-37.898437 19.199219-63.625 23.703126-32.34375 5.648437-47.867187-4.367188-69.378906-18.214844-9.851563-6.585938-20.121094-12.527344-30.742187-17.785156h-17.847657zm0 0" fill="#ea8c46"/><path d="m141.921875 12.238281c13.082031 10.953125 28.300781 19.066407 44.6875 23.828125l3.636719-13.519531c-11.558594-3.449219-22.507813-8.691406-32.441406-15.535156h-11.230469zm0 0" fill="#ea8c46"/><path d="m225.472656 152.136719c-40.402344-11.730469-150.144531-23.4375-218.472656 16.175781v8.109375h14.441406c66.207032-33.109375 168.4375-20.039063 200.128906-10.84375 41.304688 12 138.089844 17.03125 195.722657-2.355469l-4.460938-13.265625c-54.265625 18.25-148.707031 13.398438-187.359375 2.179688zm0 0" fill="#ea8c46"/><path d="m7 34.226562.363281 6.976563c26.820313-1.40625 50.558594 11.003906 75.664063 24.132813 25.628906 13.394531 52.128906 27.25 84.964844 28.761718 1.914062.085938 3.828124.128906 5.738281.128906 35.601562 0 70.945312-14.875 102.300781-28.082031 24.617188-10.367187 47.867188-20.160156 67.015625-21.019531 22.800781-.996094 42.46875 6.398438 59.84375 12.917969 13.144531 4.945312 25.5625 9.601562 37.148437 9.601562v-13.976562c-9.042968 0-19.78125-4.039063-32.21875-8.71875-17.710937-6.664063-39.730468-14.972657-65.40625-13.804688-21.644531.972657-46 11.234375-71.816406 22.101563-33.203125 14-67.558594 28.480468-101.957031 26.871094-29.75-1.375-54.847656-14.496094-79.128906-27.203126-25.566407-13.355468-51.992188-27.144531-82.511719-25.699218zm0 0" fill="#ea8c46"/><path d="m103.015625 103.46875.625-14c-28.949219-1.292969-65.578125-5.675781-92.09375-28.332031l-4.546875-4.789063v19.066406c29.171875 22.253907 66.386719 26.734376 96.015625 28.054688zm0 0" fill="#ea8c46"/><path d="m285.066406 72.566406 3.132813 13.644532c31.027343-7.117188 75.757812-14.464844 105.941406 3.855468l7.261719-11.960937c-34.527344-20.96875-82.921875-13.203125-116.335938-5.539063zm0 0" fill="#ea8c46"/><path d="m438.246094 95.929688c-62 16.429687-223.960938.703124-225.597656.542968l-1.375 13.929688c4.371093.433594 72.621093 7.0625 137.722656 7.0625 34.609375 0 68.300781-1.890625 91.039062-7.566406v-7.199219zm0 0" fill="#ea8c46"/><path d="m440.039062 131.332031-1.199218-6.894531c-.914063.164062-92.90625 15.566406-178.363282 1.324219-92.910156-15.484375-167.867187-20.300781-253.492187 3.3125v14.894531l1.882813-.917969c84.292968-23.597656 155.25-19.152343 249.300781-3.480469 27.355469 4.355469 55.019531 6.46875 82.71875 6.316407 33.1875.019531 66.324219-2.472657 99.132812-7.449219zm0 0" fill="#ea8c46"/><path d="m7 222.117188h433.035156v169.398437h-433.035156zm0 0" fill="#d36c4f"/><g fill="#c1573e"><path d="m411.535156 222.117188h28.503906v169.398437h-28.503906zm0 0"/><path d="m182.71875 342.621094c-41.070312 10.375-88.796875 18.667968-131.246094 1.5l-5.25 12.980468c19.179688 7.5 39.628906 11.210938 60.21875 10.925782 26.953125-.660156 53.726563-4.636719 79.710938-11.832032zm0 0"/><path d="m12.621094 350.90625c-1.417969-1.847656-5.621094-7.417969-5.621094-7.417969v21.734375c7.664062 7.085938 23.714844 18.800782 51.601562 26.292969h114.828126c23.902343-4.949219 49.65625-11.953125 76.214843-19.199219 61.34375-16.71875 130.886719-35.667968 189.871094-31.265625l.523437-6.972656v-7.011719c-61.324218-4.445312-131.816406 14.773438-194.074218 31.746094-48.484375 13.199219-94.285156 25.699219-129.441406 25.699219-77.335938.003906-103.671876-33.308594-103.902344-33.605469zm0 0"/><path d="m440.039062 352.5c-59.175781-4.292969-133.882812 31.199219-137.046874 32.699219l3.027343 6.3125h17.550781c24.46875-10.023438 75.246094-28.152344 115.933594-25.019531l.535156-6.972657zm0 0"/><path d="m290.066406 319.367188c-27.257812 4.015624-54.269531 9.59375-80.890625 16.699218l3.710938 13.5c26.027343-6.945312 52.433593-12.390625 79.085937-16.3125zm0 0"/><path d="m162.71875 287.78125c34.753906-1.242188 70.6875-2.519531 102.488281-2.519531v-13.992188c-32.050781 0-68.109375 1.28125-102.988281 2.527344-55.464844 1.976563-112.824219 4.019531-154.710938.902344l-.507812 6.96875v7.023437c15.847656 1.160156 33.738281 1.601563 52.851562 1.601563 32.261719.003906 67.941407-1.269531 102.867188-2.511719zm0 0"/><path d="m214.441406 305.269531c-79.898437 12-155.375 23.332031-204.707031 2.363281l-2.734375-.820312v14.75c21.347656 8.503906 46.429688 11.746094 74.121094 11.742188 40.898437 0 87.375-6.980469 135.40625-14.191407 77.082031-11.578125 156.800781-23.546875 221.917968-8.226562l1.597657-6.796875v-7.160156c-67.425781-15.378907-147.820313-3.339844-225.601563 8.339843zm0 0"/><path d="m440.039062 277.15625-1.441406-6.847656c-13.226562 2.800781-42.566406 2.425781-42.863281 2.421875l-.1875 14c.257813 0 1.734375.023437 4.039063.023437 13.527343.179688 27.046874-.648437 40.453124-2.472656zm0 0"/><path d="m437.789062 248.5c-38.929687 13.199219-103.34375 6.1875-171.535156-1.242188-84.332031-9.191406-179.773437-19.542968-259.253906 2.746094v7.230469l1.9375 6.726563c77.199219-22.242188 172.082031-11.90625 255.796875-2.800782 42.113281 4.585938 80.90625 8.800782 114.230469 8.800782 20.621094.5625 41.207031-1.980469 61.070312-7.546876v-7.289062zm0 0"/><path d="m295.375 227.355469c17.46875 15.472656 42.632812 23.199219 68.078125 23.199219 25.351563 0 50.972656-7.6875 69.5-23.0625l-4.46875-5.386719h-12c-30.148437 19.128906-76.398437 19.152343-104.941406 0h-11.527344zm0 0"/></g><path d="m7 183.421875h433.039062c3.867188 0 7-3.136719 7-7v-169.402344c0-3.867187-3.132812-6.9999998-7-6.9999998h-22.199218v13.9999998h15.199218v38.949219c-8.609374-1.957031-17.042968-4.644531-25.199218-8.027344-17.710938-6.664062-39.730469-14.972656-65.402344-13.804687-21.648438.972656-46 11.234375-71.820312 22.101562-33.203126 14-67.476563 28.480469-101.960938 26.871094-6.539062-.316406-13.042969-1.175781-19.441406-2.570313l-2.957032 13.683594c7.15625 1.5625 14.433594 2.519532 21.753907 2.871094 1.914062.085938 3.828125.128906 5.746093.128906 35.597657 0 70.9375-14.875 102.292969-28.082031 24.617188-10.367187 47.871094-20.160156 67.015625-21.019531 22.800782-.996094 42.46875 6.398437 59.84375 12.917968 9.703125 4.078126 19.808594 7.113282 30.148438 9.058594v30.070313c-65.355469 14.347656-218.796875-.546875-220.398438-.703125l-1.375 13.929687c4.371094.433594 72.621094 7.0625 137.722656 7.0625 31.199219 0 61.675782-1.527343 84.039063-6v13.847657c-21.492187 3.097656-99.386719 12.628906-172.546875.433593-90.359375-15.058593-163.765625-19.976562-246.492188 1.484375v-46.851562c27.957032 18 61.714844 21.882812 89.015626 23.097656l.625-14c-28.078126-1.253906-63.34375-5.46875-89.640626-26.402344v-21.902344c24.144532.738282 46 12.140626 69.027344 24.171876 12.527344 6.835937 25.425782 12.972656 38.632813 18.375l5.078125-13.046876c-12.722656-5.222656-25.152344-11.144531-37.226563-17.734374-23.597656-12.332032-47.910156-25.003907-75.515625-25.761719v-13.148438h63.875c14.910156 5.925781 29.109375 13.492188 42.34375 22.554688 18.125 11.667969 34.246094 22.046875 59.796875 22.046875 6.5625-.039063 13.109375-.644532 19.570313-1.808594 27.785156-4.847656 48.914062-15.558594 67.550781-25.011719 18.800781-9.539062 35.0625-17.78125 53.597656-17.78125h43.515625v-13.9999998h-357.253906c-3.867188 0-7 3.1328128-7 6.9999998v169.402344c0 3.863281 3.132812 7 7 7zm253.804688-164.105469c-18.632813 9.449219-37.898438 19.199219-63.625 23.703125-32.34375 5.648438-47.867188-4.367187-69.378907-18.214843-5.398437-3.476563-11.144531-7.148438-17.476562-10.800782h33.691406c12.644531 10.03125 27.105469 17.523438 42.59375 22.0625l3.636719-13.519531c-7.238282-2.164063-14.25-5.023437-20.9375-8.535156h102.121094c-3.507813 1.726562-7.058594 3.496093-10.625 5.304687zm-223.148438 150.105469c65.601562-24.09375 154.714844-12.3125 183.914062-3.835937 4.765626 1.382812 10.292969 2.667968 16.402344 3.835937zm220.53125-29.855469c27.355469 4.355469 55.019531 6.46875 82.71875 6.316406 30.824219-.027343 61.605469-2.167968 92.132812-6.398437v29.925781h-39.199218c7.933594-1.585937 15.765625-3.65625 23.449218-6.195312l-4.460937-13.265625c-54.261719 18.25-148.703125 13.402343-187.355469 2.179687-39.042968-11.335937-142.871094-22.648437-211.472656 12.363282v-22.800782c82.054688-21.996094 152.050781-17.476562 244.1875-2.125zm129.429688-139.5468748h17.617187v13.9999998h-17.617187zm-99.417969 86.1914068-3.132813-13.644532c33.417969-7.664062 81.808594-15.425781 116.339844 5.539063l-7.265625 11.960937c-30.183594-18.320312-74.914063-10.972656-105.941406-3.855468zm-281.199219 312.304687h433.039062c3.867188 0 7-3.132813 7-7v-169.398437c0-3.867188-3.132812-7-7-7h-336.710937v14h194.28125c17.347656 14.246093 41.429687 21.449218 65.84375 21.449218 24.183594.390625 47.828125-7.140625 67.332031-21.449218h2.257813v20.796874c-39.289063 11.203126-101.257813 4.496094-166.800781-2.640624-81.863282-8.917969-174.207032-18.890626-252.25.929687v-19.085937h26.261718v-14h-33.253906c-3.867188 0-7 3.132812-7 7v169.398437c0 3.867187 3.132812 7 7 7zm317.628906-169.398437h78.167969c-25.128906 9.824218-53.039063 9.824218-78.167969 0zm-310.628906 155.398437v-13.523437c7.464844 5.441406 15.550781 9.980468 24.085938 13.523437zm419.039062-32.324219c-54.0625-1.167968-117.882812 27.34375-128.585937 32.324219h-100.730469c14.890625-3.734375 30.265625-7.921875 45.921875-12.191406 59.125-16.117188 125.832031-34.230469 183.394531-31.601563zm-91.21875 32.324219c25.042969-8.980469 60.371094-19.054687 91.21875-18.324219v18.324219zm-77.101562-123.339844c42.113281 4.589844 80.90625 8.800781 114.230469 8.800781 18.183593.351563 36.34375-1.515624 54.074219-5.5625v6.78125c-12.398438 1.179688-24.851563 1.691407-37.304688 1.53125l-.1875 14c.257812 0 1.734375.019532 4.035156.019532 7.035156 0 21.792969-.175782 33.457032-1.464844v10.128906c-26.109376-4.792968-52.675782-6.65625-79.199219-5.558594l.398437 14c26.40625-1.140624 52.855469.832032 78.800782 5.878907v16.980469c-59.652344-2.59375-127.167969 15.769531-187.078126 32.097656-48.484374 13.199218-94.285156 25.699218-129.441406 25.699218-67.601562 0-96.230468-25.453124-102.519531-32.054687v-28.300781c21.75 6.601562 44.414063 9.6875 67.136719 9.152344 40.90625 0 87.378906-6.980469 135.410156-14.1875 40.320312-6.058594 82-12.316407 121.769531-14.578126l-.800781-13.976562c-40.398438 2.292969-82.398438 8.605469-123.050781 14.707031-77.675781 11.664063-151.09375 22.609375-200.449219 3.953125v-20.105468c14.070312.824218 29.476562 1.199218 45.851562 1.199218 32.261719 0 67.941407-1.273437 102.878907-2.515625 34.753906-1.242187 70.691406-2.519531 102.488281-2.519531v-14.011719c-32.050781 0-68.109375 1.28125-102.988281 2.527344-52.671875 1.875-107.015625 3.808594-148.230469 1.328125v-12.476562c76.265625-20.402344 168.824219-10.394532 250.71875-1.472657zm-209.554688-32.058593v-14h34.082032v14zm127.554688 113.503906 3.429688 13.574218c-25.984376 7.195313-52.757813 11.171876-79.710938 11.832032-20.589844.285156-41.039062-3.425782-60.21875-10.925782l5.253906-12.980468c42.472656 17.167968 90.1875 8.878906 131.246094-1.5zm107.335938-23.253906 1.910156 13.871093c-26.652344 3.925781-53.058594 9.371094-79.085938 16.316407l-3.703125-13.488282c26.621094-7.105468 53.632813-12.683594 80.890625-16.699218zm0 0" fill="#0c282d"/></svg>